<?xml version="1.0" standalone="no"?>
<svg viewBox="0 0 200 200" xmlns="http://www.w3.org/2000/svg">
  <path fill="#E0D4AB" d="M47.2,-62.3C62.2,-54.1,75.9,-41.6,81.3,-26.2C86.7,-10.7,83.6,7.7,77.6,24.9C71.5,42,62.5,57.8,49.1,66C35.6,74.2,17.8,74.8,0.7,73.8C-16.4,72.8,-32.8,70.3,-47.1,62.3C-61.4,54.4,-73.7,41.2,-78.1,25.8C-82.6,10.4,-79.2,-7.1,-74.6,-25.2C-70,-43.2,-64.2,-61.8,-51.6,-70.8C-39,-79.8,-19.5,-79.1,-1.7,-76.8C16.1,-74.5,32.2,-70.5,47.2,-62.3Z" transform="translate(100 100)" />
</svg>
